<svg width="525" height="96" viewBox="0 0 525 96" fill="none" xmlns="http://www.w3.org/2000/svg">
<path d="M0.1 75L14.1 5H24.7L45.1 56.3L39.6 56.2L79.5 5H90.7L76.7 75H64.4L74.5 24L77.4 24.1L43.6 67H37.8L20.1 24L22.6 24.3L12.5 75H0.1ZM97.8078 95.1C95.1411 95.1 92.5411 94.6667 90.0078 93.8C87.4078 92.9333 85.3411 91.8 83.8078 90.4L90.0078 81.3C91.1411 82.3 92.4078 83.1 93.8078 83.7C95.2745 84.3667 96.9411 84.7 98.8078 84.7C100.874 84.7 102.708 84.1333 104.308 83C105.974 81.9333 107.641 80.0667 109.308 77.4L114.008 70.1L115.208 68.8L144.608 21.6H157.108L120.308 79.7C117.841 83.5667 115.474 86.6333 113.208 88.9C110.941 91.1667 108.574 92.7667 106.108 93.7C103.708 94.6333 100.941 95.1 97.8078 95.1ZM111.508 76.9L98.4078 21.6H110.908L121.408 67.7L111.508 76.9ZM162.72 75V5H175.72V64H212.32V75H162.72ZM247.995 75.7C242.062 75.7 236.862 74.5333 232.395 72.2C227.995 69.8 224.562 66.5333 222.095 62.4C219.695 58.2667 218.495 53.5667 218.495 48.3C218.495 42.9667 219.662 38.2667 221.995 34.2C224.395 30.0667 227.662 26.8333 231.795 24.5C235.995 22.1667 240.762 21 246.095 21C251.295 21 255.929 22.1333 259.995 24.4C264.062 26.6667 267.262 29.8667 269.595 34C271.929 38.1333 273.095 43 273.095 48.6C273.095 49.1333 273.062 49.7333 272.995 50.4C272.995 51.0667 272.962 51.7 272.895 52.3H228.395V44H266.295L261.395 46.6C261.462 43.5333 260.829 40.8333 259.495 38.5C258.162 36.1667 256.329 34.3333 253.995 33C251.729 31.6667 249.095 31 246.095 31C243.029 31 240.329 31.6667 237.995 33C235.729 34.3333 233.929 36.2 232.595 38.6C231.329 40.9333 230.695 43.7 230.695 46.9V48.9C230.695 52.1 231.429 54.9333 232.895 57.4C234.362 59.8667 236.429 61.7667 239.095 63.1C241.762 64.4333 244.829 65.1 248.295 65.1C251.295 65.1 253.995 64.6333 256.395 63.7C258.795 62.7667 260.929 61.3 262.795 59.3L269.495 67C267.095 69.8 264.062 71.9667 260.395 73.5C256.795 74.9667 252.662 75.7 247.995 75.7ZM309.702 75.7C304.569 75.7 299.936 74.5667 295.802 72.3C291.736 69.9667 288.536 66.7667 286.202 62.7C283.869 58.6333 282.702 53.8333 282.702 48.3C282.702 42.7667 283.869 37.9667 286.202 33.9C288.536 29.8333 291.736 26.6667 295.802 24.4C299.936 22.1333 304.569 21 309.702 21C314.169 21 318.169 22 321.702 24C325.236 25.9333 328.036 28.9 330.102 32.9C332.169 36.9 333.202 42.0333 333.202 48.3C333.202 54.5 332.202 59.6333 330.202 63.7C328.202 67.7 325.436 70.7 321.902 72.7C318.369 74.7 314.302 75.7 309.702 75.7ZM311.202 65C314.202 65 316.869 64.3333 319.202 63C321.602 61.6667 323.502 59.7333 324.902 57.2C326.369 54.6667 327.102 51.7 327.102 48.3C327.102 44.8333 326.369 41.8667 324.902 39.4C323.502 36.8667 321.602 34.9333 319.202 33.6C316.869 32.2667 314.202 31.6 311.202 31.6C308.202 31.6 305.502 32.2667 303.102 33.6C300.769 34.9333 298.869 36.8667 297.402 39.4C296.002 41.8667 295.302 44.8333 295.302 48.3C295.302 51.7 296.002 54.6667 297.402 57.2C298.869 59.7333 300.769 61.6667 303.102 63C305.502 64.3333 308.202 65 311.202 65ZM327.402 75V62.4L327.902 48.2L326.902 34V0.799996H339.302V75H327.402ZM381.955 95.1C377.021 95.1 372.188 94.4333 367.455 93.1C362.788 91.8333 358.955 89.9667 355.955 87.5L361.555 78.1C363.888 80.0333 366.821 81.5667 370.355 82.7C373.955 83.9 377.588 84.5 381.255 84.5C387.121 84.5 391.421 83.1333 394.155 80.4C396.888 77.7333 398.255 73.7 398.255 68.3V58.8L399.255 46.7L398.855 34.6V21.6H410.755V66.9C410.755 76.5667 408.288 83.6667 403.355 88.2C398.421 92.8 391.288 95.1 381.955 95.1ZM380.355 72.6C375.288 72.6 370.688 71.5333 366.555 69.4C362.488 67.2 359.255 64.1667 356.855 60.3C354.521 56.4333 353.355 51.9 353.355 46.7C353.355 41.5667 354.521 37.0667 356.855 33.2C359.255 29.3333 362.488 26.3333 366.555 24.2C370.688 22.0667 375.288 21 380.355 21C384.888 21 388.955 21.9 392.555 23.7C396.155 25.5 399.021 28.3 401.155 32.1C403.355 35.9 404.455 40.7667 404.455 46.7C404.455 52.6333 403.355 57.5333 401.155 61.4C399.021 65.2 396.155 68.0333 392.555 69.9C388.955 71.7 384.888 72.6 380.355 72.6ZM382.255 62C385.388 62 388.188 61.3667 390.655 60.1C393.121 58.7667 395.021 56.9667 396.355 54.7C397.755 52.3667 398.455 49.7 398.455 46.7C398.455 43.7 397.755 41.0667 396.355 38.8C395.021 36.4667 393.121 34.7 390.655 33.5C388.188 32.2333 385.388 31.6 382.255 31.6C379.121 31.6 376.288 32.2333 373.755 33.5C371.288 34.7 369.355 36.4667 367.955 38.8C366.621 41.0667 365.955 43.7 365.955 46.7C365.955 49.7 366.621 52.3667 367.955 54.7C369.355 56.9667 371.288 58.7667 373.755 60.1C376.288 61.3667 379.121 62 382.255 62ZM454.288 75.7C448.355 75.7 443.155 74.5333 438.688 72.2C434.288 69.8 430.855 66.5333 428.388 62.4C425.988 58.2667 424.788 53.5667 424.788 48.3C424.788 42.9667 425.955 38.2667 428.288 34.2C430.688 30.0667 433.955 26.8333 438.088 24.5C442.288 22.1667 447.055 21 452.388 21C457.588 21 462.222 22.1333 466.288 24.4C470.355 26.6667 473.555 29.8667 475.888 34C478.222 38.1333 479.388 43 479.388 48.6C479.388 49.1333 479.355 49.7333 479.288 50.4C479.288 51.0667 479.255 51.7 479.188 52.3H434.688V44H472.588L467.688 46.6C467.755 43.5333 467.122 40.8333 465.788 38.5C464.455 36.1667 462.622 34.3333 460.288 33C458.022 31.6667 455.388 31 452.388 31C449.322 31 446.622 31.6667 444.288 33C442.022 34.3333 440.222 36.2 438.888 38.6C437.622 40.9333 436.988 43.7 436.988 46.9V48.9C436.988 52.1 437.722 54.9333 439.188 57.4C440.655 59.8667 442.722 61.7667 445.388 63.1C448.055 64.4333 451.122 65.1 454.588 65.1C457.588 65.1 460.288 64.6333 462.688 63.7C465.088 62.7667 467.222 61.3 469.088 59.3L475.788 67C473.388 69.8 470.355 71.9667 466.688 73.5C463.088 74.9667 458.955 75.7 454.288 75.7ZM493.395 75V21.6H505.295V36.3L503.895 32C505.495 28.4 507.995 25.6667 511.395 23.8C514.862 21.9333 519.162 21 524.295 21V32.9C523.762 32.7667 523.262 32.7 522.795 32.7C522.329 32.6333 521.862 32.6 521.395 32.6C516.662 32.6 512.895 34 510.095 36.8C507.295 39.5333 505.895 43.6333 505.895 49.1V75H493.395Z" fill="url(#paint0_linear_443_12)"/>
<defs>
<linearGradient id="paint0_linear_443_12" x1="74.9231" y1="24" x2="500.677" y2="84.3487" gradientUnits="userSpaceOnUse">
<stop stop-color="#250000"/>
<stop offset="1" stop-color="#12040B"/>
</linearGradient>
</defs>
</svg>
