<svg width="64" height="65" viewBox="0 0 64 65" fill="none" xmlns="http://www.w3.org/2000/svg">
<circle cx="41.5" cy="42.5" r="11.5" fill="#E1E2FF"/>
<path d="M41.625 30.7083C35.353 30.7083 30.25 35.9328 30.25 42.3542C30.25 48.7755 35.353 54 41.625 54C47.897 54 53 48.7755 53 42.3542C53 35.9328 47.897 30.7083 41.625 30.7083ZM41.625 52.2083C36.3173 52.2083 32 47.7865 32 42.3542C32 36.9218 36.3173 32.5 41.625 32.5C46.9327 32.5 51.25 36.9218 51.25 42.3542C51.25 47.7865 46.9327 52.2083 41.625 52.2083ZM46.77 38.8586L47.9968 40.1361L41.947 46.226C41.5673 46.6165 41.0545 46.8333 40.5085 46.8333C39.9625 46.8333 39.4515 46.6165 39.0648 46.2206L35.8255 43.0063L37.0435 41.7181L40.2915 44.9431C40.4 45.0542 40.617 45.0542 40.7133 44.9539L46.7682 38.8586H46.77ZM15.375 52.2083C13.9277 52.2083 12.75 51.0025 12.75 49.5208V27.125H44.25V25.3333H39V22.6458C39 16.2245 33.897 11 27.625 11C21.353 11 16.25 16.2245 16.25 22.6458V25.3333H11V49.5208C11 51.9915 12.9635 54 15.375 54H30.8607C30.2027 53.4553 29.5972 52.8515 29.032 52.2083H15.375ZM18 22.6458C18 17.2117 22.3173 12.7917 27.625 12.7917C32.9327 12.7917 37.25 17.2117 37.25 22.6458V25.3333H18V22.6458ZM26.75 43.25V36.0833H28.5V43.25H26.75Z" fill="#696CFF"/>
</svg>
