<svg width="64" height="65" viewBox="0 0 64 65" fill="none" xmlns="http://www.w3.org/2000/svg">
<g clip-path="url(#clip0_457_22)">
<circle cx="32" cy="33" r="11" fill="white"/>
<path d="M44.6875 13H20.3125C16.2809 13 13 16.2809 13 20.3125V44.6875C13 48.7191 16.2809 52 20.3125 52H44.6875C48.7191 52 52 48.7191 52 44.6875V20.3125C52 16.2809 48.7191 13 44.6875 13ZM50.375 44.6875C50.375 47.8238 47.8238 50.375 44.6875 50.375H20.3125C17.1762 50.375 14.625 47.8238 14.625 44.6875V20.3125C14.625 17.1762 17.1762 14.625 20.3125 14.625H44.6875C47.8238 14.625 50.375 17.1762 50.375 20.3125V44.6875ZM43.875 21.9375V26.8125C43.875 28.1564 42.7814 29.25 41.4375 29.25H36.5625C36.114 29.25 35.75 28.886 35.75 28.4375C35.75 27.989 36.114 27.625 36.5625 27.625H40.9224C39.1771 24.6155 36.0003 22.75 32.5 22.75C27.4332 22.75 23.1628 26.7036 22.7793 31.7493C22.7451 32.175 22.3909 32.5 21.97 32.5C21.9473 32.5 21.9277 32.5 21.9066 32.4984C21.4597 32.4642 21.125 32.0742 21.1575 31.6257C21.606 25.7367 26.5899 21.125 32.5 21.125C36.5349 21.125 40.1992 23.2505 42.25 26.689V21.9375C42.25 21.489 42.614 21.125 43.0625 21.125C43.511 21.125 43.875 21.489 43.875 21.9375ZM43.8425 33.3743C43.394 39.2633 38.4101 43.875 32.5 43.875C28.4651 43.875 24.8008 41.7495 22.75 38.311V43.0625C22.75 43.511 22.386 43.875 21.9375 43.875C21.489 43.875 21.125 43.511 21.125 43.0625V38.1875C21.125 36.8436 22.2186 35.75 23.5625 35.75H28.4375C28.886 35.75 29.25 36.114 29.25 36.5625C29.25 37.011 28.886 37.375 28.4375 37.375H24.0776C25.8229 40.3845 28.9997 42.25 32.5 42.25C37.5668 42.25 41.8373 38.2964 42.2208 33.2507C42.2549 32.8022 42.6822 32.4724 43.0934 32.5033C43.5402 32.5374 43.875 32.9258 43.8425 33.3743Z" fill="#696CFF"/>
</g>
<path opacity="0.2" d="M23 52C18.0294 52 14 47.9706 14 43V19.0667C14 17.7229 14.3544 16.4342 14.9852 15.484C15.616 14.5338 16.4715 14 17.3636 14H47.6364C48.5285 14 49.384 14.5338 50.0148 15.484C50.6456 16.4342 51 17.7229 51 19.0667V43C51 47.9706 46.9706 52 42 52H23Z" fill="#696CFF"/>
<defs>
<clipPath id="clip0_457_22">
<rect width="39" height="39" fill="white" transform="translate(13 13)"/>
</clipPath>
</defs>
</svg>
